<?xml version="1.0" encoding="utf-8"?>
<!-- Generator: Adobe Illustrator 24.0.1, SVG Export Plug-In . SVG Version: 6.00 Build 0)  -->
<svg version="1.1" id="Layer_1" xmlns="http://www.w3.org/2000/svg" xmlns:xlink="http://www.w3.org/1999/xlink" x="0px" y="0px"
	 viewBox="0 0 507.91 123.99" style="enable-background:new 0 0 507.91 123.99;" xml:space="preserve">
<style type="text/css">
	.st0{fill:#FFE93B;}
	.st1{fill:#3E4C52;}
</style>
<polygon class="st0" points="17.44,10.4 0,111.13 507.91,123.99 479.54,0 "/>
<g>
	<path class="st1" d="M49.46,40.68L61.4,75.3c1.68,0.6,2.86,1.3,3.54,2.1l-0.6,4.98H50.3l-0.6-4.98c0.48-0.64,1.44-1.24,2.88-1.8
		l-1.62-5.04h-12l-1.5,4.86c1.4,0.56,2.44,1.22,3.12,1.98l-0.6,4.98H26.3l-0.6-4.98c0.72-0.92,2.06-1.68,4.02-2.28l11.52-34.44
		H49.46z M44.48,49.08c0,2.44-0.5,5.28-1.5,8.52l-2.34,7.44h8.58l-2.28-7.32c-0.92-2.8-1.44-5.34-1.56-7.62l-0.06-1.02H44.48z"/>
	<path class="st1" d="M84.32,59.76c-3.04,0-5.14,0.58-6.3,1.74v13.74c3.24,0.6,5.46,1.44,6.66,2.52l-0.6,4.62H66.92l-0.6-4.62
		c0.56-0.76,1.66-1.44,3.3-2.04V59.04c-1.4-0.48-2.5-1.16-3.3-2.04l0.6-4.62c2.2-0.48,4.18-0.72,5.94-0.72
		c1.76,0,3.22,0.04,4.38,0.12v3.78c0.92-1.08,2.1-1.97,3.54-2.67c1.44-0.7,2.75-1.05,3.93-1.05c1.18,0,1.99,0.1,2.43,0.3l-0.18,7.8
		C86.16,59.82,85.28,59.76,84.32,59.76z"/>
	<path class="st1" d="M100.52,44.82v7.56h8.58v5.04h-8.58V72.6c0,1.28,0.18,2.21,0.54,2.79c0.36,0.58,1.22,0.87,2.58,0.87
		c1.36,0,2.82-0.3,4.38-0.9l1.8,4.68c-3.08,1.56-6.23,2.34-9.45,2.34c-3.22,0-5.4-0.69-6.54-2.07s-1.71-3.39-1.71-6.03V57.42h-2.7
		l-0.66-3.66c0.64-0.76,1.96-1.52,3.96-2.28c0.48-3.28,1.62-5.5,3.42-6.66H100.52z"/>
	<path class="st1" d="M112.64,52.38c2.24-0.52,4.32-0.78,6.24-0.78s3.54,0.06,4.86,0.18v23.94c1.56,0.6,2.66,1.28,3.3,2.04
		l-0.6,4.62h-13.8l-0.6-4.62c0.56-0.76,1.66-1.44,3.3-2.04V59.04c-1.4-0.48-2.5-1.16-3.3-2.04L112.64,52.38z M119.45,48.24
		c-3.34,0-5.01-1.51-5.01-4.53c0-3.02,1.67-4.53,5.01-4.53c3.34,0,5.01,1.51,5.01,4.53C124.46,46.73,122.79,48.24,119.45,48.24z"/>
	<path class="st1" d="M141.44,57.3c-2.64,0-3.96,0.78-3.96,2.34c0,1.48,1.38,2.58,4.14,3.3l4.74,1.26c4.88,1.28,7.32,4.1,7.32,8.46
		c0,3-1.05,5.45-3.15,7.35c-2.1,1.9-5.44,2.85-10.02,2.85c-4.58,0-8.15-0.64-10.71-1.92c-0.04-0.44-0.06-0.88-0.06-1.32
		c0-2.2,0.44-4.18,1.32-5.94h4.98c0.52,0.96,0.86,1.96,1.02,3c0.8,0.24,1.94,0.36,3.42,0.36c3.52,0,5.28-1,5.28-3
		c0-0.64-0.24-1.17-0.72-1.59s-1.42-0.83-2.82-1.23l-4.74-1.38c-2.44-0.68-4.34-1.69-5.7-3.03c-1.36-1.34-2.04-3.32-2.04-5.94
		c0-2.62,1.06-4.77,3.18-6.45c2.12-1.68,5.15-2.52,9.09-2.52c3.94,0,7.27,0.58,9.99,1.74c0.04,0.4,0.06,0.8,0.06,1.2
		c0,2.08-0.44,4-1.32,5.76h-4.92c-0.52-0.92-0.86-1.88-1.02-2.88C143.68,57.44,142.56,57.3,141.44,57.3z"/>
	<path class="st1" d="M167.42,44.82v7.56H176v5.04h-8.58V72.6c0,1.28,0.18,2.21,0.54,2.79c0.36,0.58,1.22,0.87,2.58,0.87
		c1.36,0,2.82-0.3,4.38-0.9l1.8,4.68c-3.08,1.56-6.23,2.34-9.45,2.34c-3.22,0-5.4-0.69-6.54-2.07s-1.71-3.39-1.71-6.03V57.42h-2.7
		l-0.66-3.66c0.64-0.76,1.96-1.52,3.96-2.28c0.48-3.28,1.62-5.5,3.42-6.66H167.42z"/>
	<path class="st1" d="M211.16,47.52c-1.36-0.36-2.78-0.54-4.26-0.54c-1.48,0-2.67,0.37-3.57,1.11c-0.9,0.74-1.35,1.78-1.35,3.12
		c0,1.34,0.34,2.39,1.02,3.15c0.68,0.76,2.02,1.42,4.02,1.98l5.34,1.56c2.88,0.84,5.17,2.15,6.87,3.93c1.7,1.78,2.55,4.39,2.55,7.83
		c0,4.08-1.47,7.3-4.41,9.66s-6.59,3.54-10.95,3.54c-2.4,0-4.87-0.31-7.41-0.93c-2.54-0.62-4.65-1.49-6.33-2.61c0-0.24,0-0.7,0-1.38
		c0-0.68,0.14-1.84,0.42-3.48c0.28-1.64,0.68-2.98,1.2-4.02h5.7c0.64,1.24,1.02,2.9,1.14,4.98c1.4,0.6,3.03,0.9,4.89,0.9
		s3.39-0.44,4.59-1.32c1.2-0.88,1.8-2.14,1.8-3.78c0-0.76-0.06-1.39-0.18-1.89s-0.49-1.04-1.11-1.62c-0.62-0.58-1.51-1.05-2.67-1.41
		l-6.18-1.8c-6.28-1.8-9.42-5.8-9.42-12c0-3.64,1.32-6.55,3.96-8.73c2.64-2.18,6.09-3.27,10.35-3.27c4.26,0,8.43,0.96,12.51,2.88
		c0,0.24,0,0.7,0,1.38c0,0.68-0.14,1.84-0.42,3.48c-0.28,1.64-0.68,2.98-1.2,4.02h-5.7C211.68,51.3,211.28,49.72,211.16,47.52z"/>
	<path class="st1" d="M235.52,44.82v7.56h8.58v5.04h-8.58V72.6c0,1.28,0.18,2.21,0.54,2.79c0.36,0.58,1.22,0.87,2.58,0.87
		c1.36,0,2.82-0.3,4.38-0.9l1.8,4.68c-3.08,1.56-6.23,2.34-9.45,2.34c-3.22,0-5.4-0.69-6.54-2.07s-1.71-3.39-1.71-6.03V57.42h-2.7
		l-0.66-3.66c0.64-0.76,1.96-1.52,3.96-2.28c0.48-3.28,1.62-5.5,3.42-6.66H235.52z"/>
	<path class="st1" d="M248.12,56.82c0-0.6,0.02-1.24,0.06-1.92c3.72-2,7.72-3,12-3c4.28,0,7.35,0.81,9.21,2.43
		c1.86,1.62,2.79,4.31,2.79,8.07v12.78c1.4,0.28,2.5,0.62,3.3,1.02v5.22c-2.04,0.96-4.96,1.44-8.76,1.44
		c-0.4-1.04-0.74-2.3-1.02-3.78c-1.72,2.52-4.84,3.78-9.36,3.78c-2.68,0-4.97-0.78-6.87-2.34c-1.9-1.56-2.85-3.68-2.85-6.36
		s0.89-4.79,2.67-6.33c1.78-1.54,4.43-2.31,7.95-2.31h6.54v-2.88c0-3.12-1.66-4.68-4.98-4.68c-1.24,0-2.26,0.12-3.06,0.36
		c-0.08,1.68-0.32,2.98-0.72,3.9h-5.88C248.46,60.82,248.12,59.02,248.12,56.82z M258.92,76.74c2.04,0,3.66-0.6,4.86-1.8v-4.92h-4.2
		c-2.88,0-4.32,1.1-4.32,3.3c0,1,0.31,1.82,0.93,2.46C256.81,76.42,257.72,76.74,258.92,76.74z"/>
	<path class="st1" d="M288.56,44.82v7.56h8.58v5.04h-8.58V72.6c0,1.28,0.18,2.21,0.54,2.79c0.36,0.58,1.22,0.87,2.58,0.87
		c1.36,0,2.82-0.3,4.38-0.9l1.8,4.68c-3.08,1.56-6.23,2.34-9.45,2.34c-3.22,0-5.4-0.69-6.54-2.07s-1.71-3.39-1.71-6.03V57.42h-2.7
		l-0.66-3.66c0.64-0.76,1.96-1.52,3.96-2.28c0.48-3.28,1.62-5.5,3.42-6.66H288.56z"/>
	<path class="st1" d="M314.36,82.86c-4.8,0-8.41-1.28-10.83-3.84c-2.42-2.56-3.63-6.28-3.63-11.16c0-2.96,0.42-5.51,1.26-7.65
		c0.84-2.14,1.98-3.79,3.42-4.95c2.8-2.24,6.06-3.36,9.78-3.36s6.57,0.95,8.55,2.85c1.98,1.9,2.97,5.31,2.97,10.23
		c0,2.88-1.42,4.32-4.26,4.32H308.6c0.16,2.52,0.81,4.3,1.95,5.34c1.14,1.04,2.95,1.56,5.43,1.56c1.36,0,2.66-0.16,3.9-0.48
		c1.24-0.32,2.14-0.64,2.7-0.96l0.84-0.48l1.8,4.8c-0.24,0.28-0.59,0.63-1.05,1.05s-1.62,0.98-3.48,1.68S316.71,82.86,314.36,82.86z
		 M318.14,63.96c0.08-0.56,0.12-1.24,0.12-2.04c0-0.8-0.32-1.65-0.96-2.55c-0.64-0.9-1.75-1.35-3.33-1.35
		c-1.58,0-2.79,0.48-3.63,1.44c-0.84,0.96-1.4,2.58-1.68,4.86L318.14,63.96z"/>
	<path class="st1" d="M329.53,52.38c2.2-0.48,4.18-0.72,5.94-0.72s3.22,0.04,4.38,0.12v3c0.96-0.8,2.16-1.48,3.6-2.04
		c1.44-0.56,2.74-0.84,3.9-0.84c4.56,0,7.6,1.14,9.12,3.42c1-0.96,2.32-1.77,3.96-2.43c1.64-0.66,3.16-0.99,4.56-0.99
		c4.4,0,7.36,0.99,8.88,2.97c1.52,1.98,2.28,5.69,2.28,11.13v9.72c1.56,0.6,2.66,1.28,3.3,2.04l-0.6,4.62h-13.8l-0.6-4.62
		c0.56-0.76,1.66-1.44,3.3-2.04V63.84c0-2.2-0.3-3.66-0.9-4.38c-0.6-0.72-1.79-1.08-3.57-1.08c-1.78,0-3.47,0.66-5.07,1.98
		c0.2,1.36,0.3,3.24,0.3,5.64v9.72c1.56,0.6,2.66,1.28,3.3,2.04l-0.6,4.62h-13.8l-0.6-4.62c0.56-0.76,1.66-1.44,3.3-2.04V63.84
		c0-2.2-0.3-3.66-0.9-4.38c-0.6-0.72-1.78-1.08-3.54-1.08c-1.76,0-3.44,0.64-5.04,1.92v15.42c1.56,0.6,2.66,1.28,3.3,2.04l-0.6,4.62
		h-13.8l-0.6-4.62c0.56-0.76,1.66-1.44,3.3-2.04V59.04c-1.4-0.48-2.5-1.16-3.3-2.04L329.53,52.38z"/>
	<path class="st1" d="M395.89,82.86c-4.8,0-8.41-1.28-10.83-3.84c-2.42-2.56-3.63-6.28-3.63-11.16c0-2.96,0.42-5.51,1.26-7.65
		c0.84-2.14,1.98-3.79,3.42-4.95c2.8-2.24,6.06-3.36,9.78-3.36s6.57,0.95,8.55,2.85c1.98,1.9,2.97,5.31,2.97,10.23
		c0,2.88-1.42,4.32-4.26,4.32h-13.02c0.16,2.52,0.81,4.3,1.95,5.34c1.14,1.04,2.95,1.56,5.43,1.56c1.36,0,2.66-0.16,3.9-0.48
		c1.24-0.32,2.14-0.64,2.7-0.96l0.84-0.48l1.8,4.8c-0.24,0.28-0.59,0.63-1.05,1.05s-1.62,0.98-3.48,1.68S398.25,82.86,395.89,82.86z
		 M399.67,63.96c0.08-0.56,0.12-1.24,0.12-2.04c0-0.8-0.32-1.65-0.96-2.55c-0.64-0.9-1.75-1.35-3.33-1.35
		c-1.58,0-2.79,0.48-3.63,1.44c-0.84,0.96-1.4,2.58-1.68,4.86L399.67,63.96z"/>
	<path class="st1" d="M411.07,52.38c2.2-0.48,4.18-0.72,5.94-0.72s3.22,0.04,4.38,0.12v3c1-0.84,2.33-1.53,3.99-2.07
		c1.66-0.54,3.25-0.81,4.77-0.81c3.92,0,6.67,0.92,8.25,2.76c1.58,1.84,2.37,5.02,2.37,9.54v11.52c1.56,0.6,2.66,1.28,3.3,2.04
		l-0.6,4.62h-13.8l-0.6-4.62c0.56-0.76,1.66-1.44,3.3-2.04V63.84c0-2.16-0.35-3.61-1.05-4.35c-0.7-0.74-1.95-1.11-3.75-1.11
		s-3.6,0.64-5.4,1.92v15.42c1.56,0.6,2.66,1.28,3.3,2.04l-0.6,4.62h-13.8l-0.6-4.62c0.56-0.76,1.66-1.44,3.3-2.04V59.04
		c-1.4-0.48-2.5-1.16-3.3-2.04L411.07,52.38z"/>
	<path class="st1" d="M457.09,44.82v7.56h8.58v5.04h-8.58V72.6c0,1.28,0.18,2.21,0.54,2.79c0.36,0.58,1.22,0.87,2.58,0.87
		c1.36,0,2.82-0.3,4.38-0.9l1.8,4.68c-3.08,1.56-6.23,2.34-9.45,2.34c-3.22,0-5.4-0.69-6.54-2.07s-1.71-3.39-1.71-6.03V57.42h-2.7
		l-0.66-3.66c0.64-0.76,1.96-1.52,3.96-2.28c0.48-3.28,1.62-5.5,3.42-6.66H457.09z"/>
</g>
</svg>
