<?xml version="1.0" encoding="utf-8"?>
<!-- Generator: Adobe Illustrator 24.0.1, SVG Export Plug-In . SVG Version: 6.00 Build 0)  -->
<svg version="1.1" id="Layer_1" xmlns="http://www.w3.org/2000/svg" xmlns:xlink="http://www.w3.org/1999/xlink" x="0px" y="0px"
	 viewBox="0 0 472.98 181.99" style="enable-background:new 0 0 472.98 181.99;" xml:space="preserve">
<style type="text/css">
	.st0{fill:#3E4C52;}
	.st1{fill:#FFFFFF;}
</style>
<polygon class="st0" points="472.98,0 0,40.37 20.19,161.49 453.73,181.99 "/>
<g>
	<path class="st1" d="M76.57,80.39c-1.5-0.65-3.75-0.98-6.75-0.98s-5.43,1.3-7.27,3.9c-1.85,2.6-2.77,7.15-2.77,13.65
		c0,6.5,0.89,11.11,2.66,13.84c1.77,2.73,4.41,4.09,7.91,4.09c5.35,0,10.15-0.8,14.4-2.4l2.7,6.67c-5.3,3.15-11.53,4.72-18.67,4.72
		c-7.15,0-12.31-2.02-15.49-6.07c-3.18-4.05-4.76-10.67-4.76-19.88c0-9.2,1.96-16,5.89-20.4c3.92-4.4,9.44-6.6,16.54-6.6
		c5.7,0,11.13,1.58,16.28,4.73c0,0.3,0,0.88,0,1.73c0,0.85-0.18,2.3-0.53,4.35c-0.35,2.05-0.85,3.73-1.5,5.02h-7.13
		C77.37,85.42,76.87,83.29,76.57,80.39z"/>
	<path class="st1" d="M107.89,123.89c-5.92,0-10.31-1.57-13.16-4.72s-4.27-7.91-4.27-14.29s1.59-11.25,4.76-14.63
		c3.17-3.38,7.74-5.06,13.69-5.06c5.95,0,10.36,1.5,13.24,4.5c2.87,3,4.31,7.69,4.31,14.06s-1.61,11.32-4.84,14.85
		S113.81,123.89,107.89,123.89z M101.25,104.24c0,8,2.4,12,7.2,12c2.45,0,4.26-0.91,5.44-2.74c1.17-1.83,1.76-4.81,1.76-8.96
		c0-7.8-2.45-11.7-7.35-11.7c-2.4,0-4.18,0.86-5.33,2.59C101.82,97.15,101.25,100.09,101.25,104.24z"/>
	<path class="st1" d="M131.02,85.79c2.75-0.6,5.22-0.9,7.42-0.9c2.2,0,4.02,0.05,5.48,0.15v3.75c1.25-1.05,2.91-1.91,4.99-2.59
		c2.07-0.68,4.06-1.01,5.96-1.01c4.9,0,8.34,1.15,10.31,3.45c1.97,2.3,2.96,6.27,2.96,11.93v14.4c1.95,0.75,3.32,1.6,4.13,2.55
		l-0.75,5.78h-17.25l-0.75-5.78c0.7-0.95,2.07-1.8,4.13-2.55v-14.85c0-2.7-0.44-4.51-1.31-5.44c-0.88-0.92-2.44-1.39-4.69-1.39
		s-4.5,0.8-6.75,2.4v19.27c1.95,0.75,3.32,1.6,4.13,2.55l-0.75,5.78h-17.25l-0.75-5.78c0.7-0.95,2.07-1.8,4.13-2.55V94.12
		c-1.75-0.6-3.13-1.45-4.13-2.55L131.02,85.79z"/>
	<path class="st1" d="M188.55,76.34v9.45h10.73v6.3h-10.73v18.98c0,1.6,0.23,2.76,0.67,3.49c0.45,0.73,1.52,1.09,3.23,1.09
		c1.7,0,3.52-0.38,5.48-1.13l2.25,5.85c-3.85,1.95-7.79,2.92-11.81,2.92c-4.03,0-6.75-0.86-8.18-2.59
		c-1.42-1.72-2.14-4.24-2.14-7.54V92.09h-3.38l-0.83-4.57c0.8-0.95,2.45-1.9,4.95-2.85c0.6-4.1,2.02-6.87,4.27-8.33H188.55z"/>
	<path class="st1" d="M204.3,91.34c0-0.75,0.02-1.55,0.07-2.4c4.65-2.5,9.65-3.75,15-3.75c5.35,0,9.19,1.01,11.51,3.04
		c2.33,2.02,3.49,5.39,3.49,10.09v15.97c1.75,0.35,3.12,0.78,4.13,1.28v6.52c-2.55,1.2-6.2,1.8-10.95,1.8
		c-0.5-1.3-0.93-2.87-1.28-4.72c-2.15,3.15-6.05,4.72-11.7,4.72c-3.35,0-6.21-0.97-8.59-2.92c-2.38-1.95-3.56-4.6-3.56-7.95
		c0-3.35,1.11-5.99,3.34-7.91c2.22-1.92,5.54-2.89,9.94-2.89h8.17v-3.6c0-3.9-2.08-5.85-6.23-5.85c-1.55,0-2.83,0.15-3.82,0.45
		c-0.1,2.1-0.4,3.73-0.9,4.88h-7.35C204.72,96.34,204.3,94.09,204.3,91.34z M217.8,116.24c2.55,0,4.58-0.75,6.08-2.25v-6.15h-5.25
		c-3.6,0-5.4,1.38-5.4,4.13c0,1.25,0.39,2.28,1.16,3.08C215.16,115.84,216.3,116.24,217.8,116.24z"/>
	<path class="st1" d="M258.82,92.84c-4.6,0-6.9,3.95-6.9,11.85c0,4,0.64,6.79,1.91,8.36c1.27,1.58,3.11,2.36,5.51,2.36
		c3.8,0,7.15-0.35,10.05-1.05l2.25,5.77c-1.6,1.05-3.75,1.94-6.45,2.66c-2.7,0.72-5.33,1.09-7.88,1.09c-10.8,0-16.2-6.25-16.2-18.75
		c0-7.3,1.88-12.55,5.63-15.75c3.35-2.8,7.42-4.2,12.22-4.2c4.8,0,8.8,0.9,12,2.7c0.05,0.5,0.08,0.98,0.08,1.42
		c0,2.85-0.65,5.55-1.95,8.1h-6.6c-0.7-1.25-1.13-2.75-1.28-4.5C260.62,92.87,259.82,92.84,258.82,92.84z"/>
	<path class="st1" d="M288.6,76.34v9.45h10.73v6.3H288.6v18.98c0,1.6,0.23,2.76,0.68,3.49c0.45,0.73,1.52,1.09,3.22,1.09
		c1.7,0,3.53-0.38,5.47-1.13l2.25,5.85c-3.85,1.95-7.79,2.92-11.81,2.92c-4.03,0-6.75-0.86-8.17-2.59
		c-1.42-1.72-2.14-4.24-2.14-7.54V92.09h-3.38l-0.82-4.57c0.8-0.95,2.45-1.9,4.95-2.85c0.6-4.1,2.03-6.87,4.28-8.33H288.6z"/>
	<path class="st1" d="M368.84,95.02c0-2,0.17-5.1,0.52-9.3l0.15-1.8l-0.75-0.08c-1.15,4.25-2.15,7.63-3,10.13l-9.97,29.33h-9.98
		l-10.5-29.33c-0.95-2.25-1.8-5.05-2.55-8.4l-0.45-1.73l-0.75,0.08c0.45,4.45,0.67,8.15,0.67,11.1v19.73
		c1.85,0.7,3.23,1.63,4.13,2.77l-0.75,5.78h-14.7l-0.75-5.78c0.9-1.15,2.27-2.07,4.13-2.77V80.09c-2.05-0.75-3.48-1.67-4.28-2.77
		l0.75-5.77h17.1l10.95,30.22c1.4,3.3,2.3,6.33,2.7,9.08l0.22,1.28h1.05c0.2-3.05,1.1-6.5,2.7-10.35l10.43-30.22h16.8l0.75,5.77
		c-0.8,1.1-2.23,2.02-4.28,2.77v34.35c1.95,0.75,3.33,1.63,4.13,2.63l-0.75,6.22h-17.1l-0.75-6.15c0.8-1,2.17-1.88,4.13-2.63V95.02z
		"/>
	<path class="st1" d="M405.74,123.89c-6,0-10.51-1.6-13.54-4.8c-3.03-3.2-4.54-7.85-4.54-13.95c0-3.7,0.53-6.89,1.58-9.56
		c1.05-2.67,2.47-4.74,4.27-6.19c3.5-2.8,7.58-4.2,12.23-4.2c4.65,0,8.21,1.19,10.69,3.56c2.47,2.38,3.71,6.64,3.71,12.79
		c0,3.6-1.78,5.4-5.32,5.4h-16.28c0.2,3.15,1.01,5.38,2.44,6.67c1.42,1.3,3.69,1.95,6.79,1.95c1.7,0,3.33-0.2,4.88-0.6
		c1.55-0.4,2.67-0.8,3.38-1.2l1.05-0.6l2.25,6c-0.3,0.35-0.74,0.79-1.31,1.31c-0.58,0.53-2.03,1.23-4.35,2.1
		C411.33,123.45,408.69,123.89,405.74,123.89z M410.47,100.27c0.1-0.7,0.15-1.55,0.15-2.55c0-1-0.4-2.06-1.2-3.19
		c-0.8-1.13-2.19-1.69-4.16-1.69c-1.98,0-3.49,0.6-4.54,1.8c-1.05,1.2-1.75,3.23-2.1,6.08L410.47,100.27z"/>
</g>
</svg>
