<?xml version="1.0" encoding="utf-8"?>
<!-- Generator: Adobe Illustrator 24.0.1, SVG Export Plug-In . SVG Version: 6.00 Build 0)  -->
<svg version="1.1" id="Layer_1" xmlns="http://www.w3.org/2000/svg" xmlns:xlink="http://www.w3.org/1999/xlink" x="0px" y="0px"
	 viewBox="0 0 400.69 117.08" style="enable-background:new 0 0 400.69 117.08;" xml:space="preserve">
<style type="text/css">
	.st0{fill:#FF2093;}
	.st1{fill:#3E4C52;}
</style>
<polygon class="st0" points="9.63,36.63 393.86,0 400.69,117.08 0,98.74 "/>
<g>
	<path class="st1" d="M198.42,80.71c-6,0-10.51-1.6-13.54-4.8c-3.03-3.2-4.54-7.85-4.54-13.95c0-3.7,0.52-6.89,1.58-9.56
		c1.05-2.67,2.47-4.74,4.27-6.19c3.5-2.8,7.57-4.2,12.23-4.2c4.65,0,8.21,1.19,10.69,3.56c2.47,2.38,3.71,6.64,3.71,12.79
		c0,3.6-1.78,5.4-5.33,5.4h-16.27c0.2,3.15,1.01,5.38,2.44,6.67c1.42,1.3,3.69,1.95,6.79,1.95c1.7,0,3.32-0.2,4.88-0.6
		c1.55-0.4,2.67-0.8,3.38-1.2l1.05-0.6l2.25,6c-0.3,0.35-0.74,0.79-1.31,1.31c-0.58,0.53-2.03,1.23-4.35,2.1
		C204.01,80.27,201.37,80.71,198.42,80.71z M203.15,57.08c0.1-0.7,0.15-1.55,0.15-2.55c0-1-0.4-2.06-1.2-3.19
		c-0.8-1.13-2.19-1.69-4.16-1.69c-1.98,0-3.49,0.6-4.54,1.8c-1.05,1.2-1.75,3.23-2.1,6.08L203.15,57.08z"/>
	<path class="st1" d="M217.4,42.61c2.75-0.6,5.22-0.9,7.42-0.9c2.2,0,4.02,0.05,5.47,0.15v3.75c1.2-1,2.7-1.85,4.5-2.55
		c1.8-0.7,3.42-1.05,4.88-1.05c5.7,0,9.5,1.43,11.4,4.27c1.25-1.2,2.9-2.21,4.95-3.04c2.05-0.83,3.95-1.24,5.7-1.24
		c5.5,0,9.2,1.24,11.1,3.71c1.9,2.48,2.85,7.11,2.85,13.91v12.15c1.95,0.75,3.33,1.6,4.13,2.55l-0.75,5.78H261.8l-0.75-5.78
		c0.7-0.95,2.07-1.8,4.13-2.55V56.93c0-2.75-0.38-4.58-1.13-5.48c-0.75-0.9-2.24-1.35-4.46-1.35c-2.23,0-4.34,0.83-6.34,2.47
		c0.25,1.7,0.38,4.05,0.38,7.05v12.15c1.95,0.75,3.32,1.6,4.13,2.55L257,80.11h-17.25L239,74.33c0.7-0.95,2.07-1.8,4.13-2.55V56.93
		c0-2.75-0.38-4.58-1.13-5.48c-0.75-0.9-2.23-1.35-4.42-1.35c-2.2,0-4.3,0.8-6.3,2.4v19.27c1.95,0.75,3.32,1.6,4.13,2.55l-0.75,5.78
		H217.4l-0.75-5.78c0.7-0.95,2.07-1.8,4.13-2.55V50.93c-1.75-0.6-3.13-1.45-4.13-2.55L217.4,42.61z"/>
	<path class="st1" d="M283.85,48.16c0-0.75,0.02-1.55,0.07-2.4c4.65-2.5,9.65-3.75,15-3.75c5.35,0,9.19,1.01,11.51,3.04
		s3.49,5.39,3.49,10.09v15.97c1.75,0.35,3.13,0.78,4.13,1.28v6.52c-2.55,1.2-6.2,1.8-10.95,1.8c-0.5-1.3-0.93-2.87-1.28-4.72
		c-2.15,3.15-6.05,4.72-11.7,4.72c-3.35,0-6.21-0.97-8.59-2.92c-2.38-1.95-3.56-4.6-3.56-7.95c0-3.35,1.11-5.99,3.34-7.91
		c2.22-1.92,5.54-2.89,9.94-2.89h8.17v-3.6c0-3.9-2.08-5.85-6.22-5.85c-1.55,0-2.83,0.15-3.83,0.45c-0.1,2.1-0.4,3.73-0.9,4.88
		h-7.35C284.27,53.16,283.85,50.91,283.85,48.16z M297.35,73.06c2.55,0,4.57-0.75,6.07-2.25v-6.15h-5.25c-3.6,0-5.4,1.38-5.4,4.13
		c0,1.25,0.39,2.28,1.16,3.08C294.71,72.66,295.85,73.06,297.35,73.06z"/>
	<path class="st1" d="M321.65,42.61c2.8-0.65,5.4-0.98,7.8-0.98c2.4,0,4.43,0.08,6.08,0.23v29.92c1.95,0.75,3.33,1.6,4.13,2.55
		l-0.75,5.78h-17.25l-0.75-5.78c0.7-0.95,2.07-1.8,4.13-2.55V50.93c-1.75-0.6-3.13-1.45-4.13-2.55L321.65,42.61z M330.16,37.43
		c-4.18,0-6.26-1.89-6.26-5.66c0-3.77,2.09-5.66,6.26-5.66c4.17,0,6.26,1.89,6.26,5.66C336.42,35.55,334.33,37.43,330.16,37.43z"/>
	<path class="st1" d="M342.5,26.86c2.8-0.65,5.4-0.98,7.8-0.98c2.4,0,4.42,0.08,6.08,0.23v45.67c1.95,0.75,3.32,1.6,4.13,2.55
		l-0.75,5.78H342.5l-0.75-5.78c0.7-0.95,2.07-1.8,4.13-2.55v-36.6c-1.75-0.6-3.13-1.45-4.13-2.55L342.5,26.86z"/>
	<path class="st1" d="M371.18,57.91c-3.97,0-5.96-1.86-5.96-5.59s1.99-5.59,5.96-5.59c3.98,0,5.96,1.86,5.96,5.59
		S375.16,57.91,371.18,57.91z M371.18,74.86c-3.97,0-5.96-1.86-5.96-5.59c0-3.72,1.99-5.59,5.96-5.59c3.98,0,5.96,1.86,5.96,5.59
		C377.15,73,375.16,74.86,371.18,74.86z"/>
</g>
</svg>
