<?xml version="1.0" encoding="utf-8"?>
<!-- Generator: Adobe Illustrator 24.0.1, SVG Export Plug-In . SVG Version: 6.00 Build 0)  -->
<svg version="1.1" id="Layer_1" xmlns="http://www.w3.org/2000/svg" xmlns:xlink="http://www.w3.org/1999/xlink" x="0px" y="0px"
	 viewBox="0 0 407.76 124.22" style="enable-background:new 0 0 407.76 124.22;" xml:space="preserve">
<style type="text/css">
	.st0{fill:#2087B3;}
	.st1{fill:#3E4C52;}
</style>
<polygon class="st0" points="0,0 407.76,37.58 398.45,107.76 18.32,124.22 "/>
<g>
	<path class="st1" d="M158.1,49.83c2.75-0.6,5.22-0.9,7.42-0.9c2.2,0,4.02,0.05,5.48,0.15v3.67c3.35-2.35,6.92-3.52,10.73-3.52
		c5,0,8.63,1.43,10.88,4.27c2.25,2.85,3.38,7.6,3.38,14.25c0,3.55-0.52,6.67-1.58,9.38c-1.05,2.7-2.47,4.8-4.27,6.3
		c-3.45,3-7.55,4.5-12.3,4.5c-2.05,0-4-0.2-5.85-0.6v6.45c2.95,0.8,4.85,1.72,5.7,2.77l-0.75,5.78H158.1l-0.75-5.78
		c0.65-0.9,2.02-1.75,4.13-2.55V58.16c-1.75-0.6-3.13-1.45-4.13-2.55L158.1,49.83z M177.07,80.28c2.5,0,4.47-1.11,5.92-3.34
		c1.45-2.22,2.18-5.3,2.18-9.22c0-3.92-0.4-6.61-1.2-8.06c-0.8-1.45-2.25-2.17-4.35-2.17c-3.2,0-5.75,0.75-7.65,2.25v19.95
		C173.52,80.09,175.22,80.28,177.07,80.28z"/>
	<path class="st1" d="M199.72,34.08c2.8-0.65,5.4-0.98,7.8-0.98c2.4,0,4.42,0.08,6.08,0.23v18.75c1.2-0.8,2.8-1.47,4.8-2.02
		c2-0.55,3.77-0.83,5.33-0.83c4.95,0,8.37,1.2,10.28,3.6c1.9,2.4,2.85,6.05,2.85,10.95v15.22c1.95,0.75,3.32,1.6,4.13,2.55
		l-0.75,5.78h-17.25l-0.75-5.78c0.7-0.95,2.07-1.8,4.13-2.55V64.16c0-2.7-0.44-4.51-1.31-5.44c-0.88-0.92-2.46-1.39-4.76-1.39
		s-4.53,0.8-6.67,2.4v19.27c1.95,0.75,3.32,1.6,4.13,2.55l-0.75,5.78h-17.25l-0.75-5.78c0.7-0.95,2.07-1.8,4.13-2.55v-36.6
		c-1.75-0.6-3.13-1.45-4.13-2.55L199.72,34.08z"/>
	<path class="st1" d="M260.96,87.93c-5.92,0-10.31-1.57-13.16-4.72c-2.85-3.15-4.28-7.91-4.28-14.29s1.59-11.25,4.76-14.63
		c3.17-3.38,7.74-5.06,13.69-5.06c5.95,0,10.36,1.5,13.24,4.5c2.88,3,4.31,7.69,4.31,14.06s-1.61,11.32-4.84,14.85
		C271.46,86.17,266.88,87.93,260.96,87.93z M254.32,68.28c0,8,2.4,12,7.2,12c2.45,0,4.26-0.91,5.44-2.74s1.76-4.81,1.76-8.96
		c0-7.8-2.45-11.7-7.35-11.7c-2.4,0-4.18,0.86-5.33,2.59C254.89,61.2,254.32,64.14,254.32,68.28z"/>
	<path class="st1" d="M284.09,49.83c2.75-0.6,5.22-0.9,7.42-0.9s4.02,0.05,5.48,0.15v3.75c1.25-1.05,2.91-1.91,4.99-2.59
		c2.07-0.68,4.06-1.01,5.96-1.01c4.9,0,8.34,1.15,10.31,3.45c1.97,2.3,2.96,6.27,2.96,11.93v14.4c1.95,0.75,3.32,1.6,4.13,2.55
		l-0.75,5.78h-17.25l-0.75-5.78c0.7-0.95,2.07-1.8,4.13-2.55V64.16c0-2.7-0.44-4.51-1.31-5.44c-0.88-0.92-2.44-1.39-4.69-1.39
		s-4.5,0.8-6.75,2.4v19.27c1.95,0.75,3.32,1.6,4.13,2.55l-0.75,5.78h-17.25l-0.75-5.78c0.7-0.95,2.07-1.8,4.13-2.55V58.16
		c-1.75-0.6-3.13-1.45-4.13-2.55L284.09,49.83z"/>
	<path class="st1" d="M345.97,87.93c-6,0-10.51-1.6-13.54-4.8c-3.03-3.2-4.54-7.85-4.54-13.95c0-3.7,0.53-6.89,1.58-9.56
		c1.05-2.67,2.47-4.74,4.28-6.19c3.5-2.8,7.57-4.2,12.22-4.2s8.21,1.19,10.69,3.56c2.47,2.38,3.71,6.64,3.71,12.79
		c0,3.6-1.78,5.4-5.33,5.4h-16.28c0.2,3.15,1.01,5.38,2.44,6.67c1.42,1.3,3.69,1.95,6.79,1.95c1.7,0,3.32-0.2,4.88-0.6
		c1.55-0.4,2.67-0.8,3.38-1.2l1.05-0.6l2.25,6c-0.3,0.35-0.74,0.79-1.31,1.31c-0.58,0.53-2.03,1.23-4.35,2.1
		C351.56,87.5,348.92,87.93,345.97,87.93z M350.69,64.31c0.1-0.7,0.15-1.55,0.15-2.55c0-1-0.4-2.06-1.2-3.19s-2.19-1.69-4.16-1.69
		c-1.98,0-3.49,0.6-4.54,1.8c-1.05,1.2-1.75,3.23-2.1,6.08L350.69,64.31z"/>
	<path class="st1" d="M371.81,65.13c-3.98,0-5.96-1.86-5.96-5.59s1.99-5.59,5.96-5.59c3.97,0,5.96,1.86,5.96,5.59
		S375.78,65.13,371.81,65.13z M371.81,82.08c-3.98,0-5.96-1.86-5.96-5.59c0-3.72,1.99-5.59,5.96-5.59c3.97,0,5.96,1.86,5.96,5.59
		C377.77,80.22,375.78,82.08,371.81,82.08z"/>
</g>
</svg>
