<?xml version="1.0" encoding="utf-8"?>
<!-- Generator: Adobe Illustrator 24.0.1, SVG Export Plug-In . SVG Version: 6.00 Build 0)  -->
<svg version="1.1" id="Layer_1" xmlns="http://www.w3.org/2000/svg" xmlns:xlink="http://www.w3.org/1999/xlink" x="0px" y="0px"
	 viewBox="0 0 493.17 99.07" style="enable-background:new 0 0 493.17 99.07;" xml:space="preserve">
<style type="text/css">
	.st0{fill:#FF2093;}
	.st1{fill:#3E4C52;}
</style>
<polygon class="st0" points="0,11.49 15.72,89.84 472.67,99.07 493.17,0 "/>
<g>
	<path class="st1" d="M35.35,59.14c-1.82-2.88-2.73-7.27-2.73-13.18c0-5.91,1.34-10.38,4.03-13.42c2.69-3.03,6.52-4.55,11.49-4.55
		c4.97,0,8.68,1.35,11.13,4.06c2.44,2.7,3.67,7.28,3.67,13.73c0,5.37-1.02,9.62-3.07,12.74c-2.05,3.12-4.94,5.06-8.68,5.82
		c1.73,2.25,4.63,3.71,8.68,4.37l-0.52,4.73c-0.14,0-0.29,0-0.47,0c-3.61,0-6.88-0.79-9.83-2.37c-2.95-1.58-4.78-3.8-5.51-6.68
		C39.9,63.77,37.17,62.02,35.35,59.14z M42.29,36.57c-1.25,1.8-1.87,4.94-1.87,9.41c0,4.47,0.66,7.73,1.98,9.78
		c1.32,2.05,3.13,3.07,5.43,3.07c2.31,0,4.1-0.96,5.38-2.89c1.28-1.92,1.92-5.12,1.92-9.59c0-8.32-2.5-12.48-7.49-12.48
		C45.32,33.87,43.54,34.77,42.29,36.57z"/>
	<path class="st1" d="M85.03,62.1c-2.39,1.73-5.21,2.6-8.45,2.6c-3.24,0-5.5-0.68-6.79-2.03c-1.28-1.35-1.92-3.55-1.92-6.6V44.06
		c-1.21-0.42-2.17-1-2.86-1.77l0.52-4c1.94-0.45,3.74-0.68,5.41-0.68c1.66,0,3.07,0.05,4.21,0.16v16.59c0,1.87,0.29,3.11,0.86,3.72
		c0.57,0.61,1.71,0.91,3.41,0.91c1.7,0,3.28-0.55,4.73-1.66V44.06c-1.21-0.42-2.17-1-2.86-1.77l0.52-4
		c1.94-0.45,3.74-0.68,5.41-0.68s3.07,0.05,4.21,0.16v20.28c1.21,0.24,2.17,0.54,2.86,0.88v4.11c-2.08,1.11-4.7,1.66-7.85,1.66
		C85.57,64.08,85.1,63.21,85.03,62.1z"/>
	<path class="st1" d="M108.46,64.7c-4.11,0-7.15-1.09-9.13-3.28c-1.98-2.18-2.96-5.49-2.96-9.91c0-4.42,1.1-7.8,3.3-10.14
		c2.2-2.34,5.36-3.51,9.49-3.51s7.18,1.04,9.18,3.12c1.99,2.08,2.99,5.33,2.99,9.75s-1.12,7.85-3.35,10.3
		C115.74,63.48,112.56,64.7,108.46,64.7z M103.85,51.08c0,5.55,1.66,8.32,4.99,8.32c1.7,0,2.96-0.63,3.77-1.9
		c0.81-1.26,1.22-3.34,1.22-6.21c0-5.41-1.7-8.11-5.1-8.11c-1.66,0-2.89,0.6-3.69,1.79C104.25,46.16,103.85,48.2,103.85,51.08z"/>
	<path class="st1" d="M133.44,31.73v6.55h7.44v4.37h-7.44v13.16c0,1.11,0.16,1.92,0.47,2.42s1.06,0.75,2.24,0.75
		c1.18,0,2.44-0.26,3.8-0.78l1.56,4.06c-2.67,1.35-5.4,2.03-8.19,2.03c-2.79,0-4.68-0.6-5.67-1.79c-0.99-1.2-1.48-2.94-1.48-5.23
		V42.65h-2.34l-0.57-3.17c0.55-0.66,1.7-1.32,3.43-1.98c0.42-2.84,1.4-4.77,2.96-5.77H133.44z"/>
	<path class="st1" d="M155.8,64.7c-4.16,0-7.29-1.11-9.39-3.33c-2.1-2.22-3.15-5.44-3.15-9.67c0-2.57,0.36-4.77,1.09-6.63
		c0.73-1.85,1.72-3.28,2.96-4.29c2.43-1.94,5.25-2.91,8.48-2.91s5.69,0.82,7.41,2.47c1.72,1.65,2.57,4.6,2.57,8.87
		c0,2.5-1.23,3.74-3.69,3.74h-11.28c0.14,2.18,0.7,3.73,1.69,4.63c0.99,0.9,2.56,1.35,4.71,1.35c1.18,0,2.31-0.14,3.38-0.42
		c1.07-0.28,1.85-0.55,2.34-0.83l0.73-0.42l1.56,4.16c-0.21,0.24-0.51,0.55-0.91,0.91c-0.4,0.36-1.4,0.85-3.02,1.46
		C159.68,64.4,157.85,64.7,155.8,64.7z M159.08,48.32c0.07-0.49,0.1-1.07,0.1-1.77c0-0.69-0.28-1.43-0.83-2.21
		c-0.55-0.78-1.52-1.17-2.89-1.17c-1.37,0-2.42,0.42-3.15,1.25c-0.73,0.83-1.21,2.24-1.46,4.21L159.08,48.32z"/>
	<path class="st1" d="M199.07,28.15l10.35,30c1.46,0.52,2.48,1.13,3.07,1.82l-0.52,4.32h-12.17l-0.52-4.32
		c0.42-0.55,1.25-1.07,2.5-1.56l-1.4-4.37h-10.4l-1.3,4.21c1.21,0.49,2.11,1.06,2.7,1.72l-0.52,4.32h-11.86l-0.52-4.32
		c0.62-0.8,1.79-1.46,3.48-1.98l9.98-29.85H199.07z M194.75,35.43c0,2.11-0.43,4.58-1.3,7.38l-2.03,6.45h7.44l-1.98-6.34
		c-0.8-2.43-1.25-4.63-1.35-6.6l-0.05-0.88H194.75z"/>
	<path class="st1" d="M212.58,27.37c1.94-0.45,3.74-0.68,5.41-0.68s3.07,0.05,4.21,0.16v13c0.73-0.52,1.7-0.98,2.91-1.38
		c1.21-0.4,2.37-0.6,3.48-0.6c3.78,0,6.43,0.97,7.96,2.91c1.52,1.94,2.29,5.25,2.29,9.93c0,2.6-0.36,4.84-1.07,6.73
		c-0.71,1.89-1.67,3.34-2.89,4.34c-2.29,1.94-4.99,2.91-8.11,2.91c-2.36,0-4.68-0.59-6.97-1.77c-0.66,0.9-1.42,1.35-2.29,1.35h-2.6
		V33.14c-1.21-0.42-2.17-1-2.86-1.77L212.58,27.37z M226.36,59.4c3.33,0,4.99-2.79,4.99-8.37c0-2.95-0.29-4.95-0.86-6.01
		c-0.57-1.06-1.57-1.59-2.99-1.59c-2.15,0-3.92,0.57-5.3,1.72v13.36C223.69,59.1,225.08,59.4,226.36,59.4z"/>
	<path class="st1" d="M253.64,64.7c-4.11,0-7.15-1.09-9.13-3.28c-1.98-2.18-2.96-5.49-2.96-9.91c0-4.42,1.1-7.8,3.3-10.14
		c2.2-2.34,5.36-3.51,9.49-3.51c4.13,0,7.18,1.04,9.18,3.12s2.99,5.33,2.99,9.75s-1.12,7.85-3.35,10.3
		C260.92,63.48,257.75,64.7,253.64,64.7z M249.04,51.08c0,5.55,1.66,8.32,4.99,8.32c1.7,0,2.96-0.63,3.77-1.9
		c0.81-1.26,1.22-3.34,1.22-6.21c0-5.41-1.7-8.11-5.1-8.11c-1.66,0-2.89,0.6-3.69,1.79C249.44,46.16,249.04,48.2,249.04,51.08z"/>
	<path class="st1" d="M288.35,62.1c-2.39,1.73-5.21,2.6-8.45,2.6c-3.24,0-5.5-0.68-6.79-2.03c-1.28-1.35-1.92-3.55-1.92-6.6V44.06
		c-1.21-0.42-2.17-1-2.86-1.77l0.52-4c1.94-0.45,3.74-0.68,5.41-0.68s3.07,0.05,4.21,0.16v16.59c0,1.87,0.29,3.11,0.86,3.72
		c0.57,0.61,1.71,0.91,3.41,0.91c1.7,0,3.28-0.55,4.73-1.66V44.06c-1.21-0.42-2.17-1-2.86-1.77l0.52-4
		c1.94-0.45,3.74-0.68,5.41-0.68s3.07,0.05,4.21,0.16v20.28c1.21,0.24,2.17,0.54,2.86,0.88v4.11c-2.08,1.11-4.7,1.66-7.85,1.66
		C288.89,64.08,288.42,63.21,288.35,62.1z"/>
	<path class="st1" d="M309.2,31.73v6.55h7.44v4.37h-7.44v13.16c0,1.11,0.16,1.92,0.47,2.42c0.31,0.5,1.06,0.75,2.24,0.75
		s2.44-0.26,3.8-0.78l1.56,4.06c-2.67,1.35-5.4,2.03-8.19,2.03c-2.79,0-4.68-0.6-5.67-1.79c-0.99-1.2-1.48-2.94-1.48-5.23V42.65
		h-2.34l-0.57-3.17c0.55-0.66,1.7-1.32,3.43-1.98c0.42-2.84,1.4-4.77,2.96-5.77H309.2z"/>
	<path class="st1" d="M353.14,44.84l-4.37,19.71h-8.01l-8.32-30.06c-1.42-0.52-2.38-1.11-2.86-1.77l0.52-4.32h12.01l0.52,4.32
		c-0.59,0.69-1.53,1.27-2.81,1.72l3.69,15.34c0.55,2.22,0.99,4.42,1.3,6.6l0.1,0.88h0.73c0.03-2.05,0.36-4.51,0.99-7.38l4.68-21.11
		h7.96l4.68,21.01c0.55,2.53,0.94,4.73,1.14,6.6l0.1,0.94h0.73c0.07-2.11,0.49-4.59,1.25-7.44l4.11-15.24
		c-1.46-0.52-2.46-1.16-3.02-1.92l0.52-4.32h11.49l0.52,4.32c-0.66,0.83-1.82,1.51-3.48,2.03l-8.74,29.8h-8.16l-4.21-19.66
		c-0.49-2.36-0.85-4.66-1.09-6.92l-0.1-1.04h-0.73C354.14,39.33,353.76,41.96,353.14,44.84z"/>
	<path class="st1" d="M391.28,64.7c-4.11,0-7.15-1.09-9.13-3.28c-1.98-2.18-2.96-5.49-2.96-9.91c0-4.42,1.1-7.8,3.3-10.14
		c2.2-2.34,5.36-3.51,9.49-3.51c4.13,0,7.18,1.04,9.18,3.12s2.99,5.33,2.99,9.75s-1.12,7.85-3.35,10.3
		C398.56,63.48,395.39,64.7,391.28,64.7z M386.68,51.08c0,5.55,1.66,8.32,4.99,8.32c1.7,0,2.96-0.63,3.77-1.9
		c0.81-1.26,1.22-3.34,1.22-6.21c0-5.41-1.7-8.11-5.1-8.11c-1.66,0-2.89,0.6-3.69,1.79C387.08,46.16,386.68,48.2,386.68,51.08z"/>
	<path class="st1" d="M422.4,44.68c-2.63,0-4.46,0.5-5.46,1.51V58.1c2.81,0.52,4.73,1.25,5.77,2.18l-0.52,4h-14.87l-0.52-4
		c0.49-0.66,1.44-1.25,2.86-1.77V44.06c-1.21-0.42-2.17-1-2.86-1.77l0.52-4c1.91-0.42,3.62-0.62,5.15-0.62s2.79,0.04,3.8,0.1v3.28
		c0.8-0.94,1.82-1.71,3.07-2.31c1.25-0.61,2.38-0.91,3.41-0.91c1.02,0,1.72,0.09,2.11,0.26l-0.16,6.76
		C424,44.73,423.24,44.68,422.4,44.68z"/>
	<path class="st1" d="M426.87,27.37c1.94-0.45,3.74-0.68,5.41-0.68s3.07,0.05,4.21,0.16v31.67c1.35,0.52,2.3,1.11,2.86,1.77l-0.52,4
		h-11.96l-0.52-4c0.49-0.66,1.44-1.25,2.86-1.77V33.14c-1.21-0.42-2.17-1-2.86-1.77L426.87,27.37z M446.17,64.29l-9.2-13.47
		l5.72-7.44c-0.59-0.35-1.01-0.71-1.25-1.09l0.52-4h11.44l0.52,4c-0.76,0.97-2.2,1.73-4.32,2.29l-4.99,5.72l5.88,7.75
		c2.15,0.49,3.66,1.23,4.52,2.24l-0.52,4H446.17z"/>
</g>
</svg>
