<?xml version="1.0" encoding="utf-8"?>
<!-- Generator: Adobe Illustrator 24.0.1, SVG Export Plug-In . SVG Version: 6.00 Build 0)  -->
<svg version="1.1" id="Layer_1" xmlns="http://www.w3.org/2000/svg" xmlns:xlink="http://www.w3.org/1999/xlink" x="0px" y="0px"
	 viewBox="0 0 404.97 122.43" style="enable-background:new 0 0 404.97 122.43;" xml:space="preserve">
<style type="text/css">
	.st0{fill:#FFE93B;}
	.st1{fill:#3E4C52;}
</style>
<polygon class="st0" points="0,0 404.97,27.95 399.38,102.8 9.63,122.43 "/>
<g>
	<path class="st1" d="M41.14,58.48c-2.82,0-4.22,0.83-4.22,2.5c0,1.58,1.47,2.75,4.42,3.52l5.06,1.34c5.21,1.37,7.81,4.37,7.81,9.02
		c0,3.2-1.12,5.81-3.36,7.84c-2.24,2.03-5.8,3.04-10.69,3.04c-4.89,0-8.69-0.68-11.42-2.05c-0.04-0.47-0.06-0.94-0.06-1.41
		c0-2.35,0.47-4.46,1.41-6.34h5.31c0.55,1.02,0.92,2.09,1.09,3.2c0.85,0.26,2.07,0.38,3.65,0.38c3.75,0,5.63-1.07,5.63-3.2
		c0-0.68-0.26-1.25-0.77-1.7c-0.51-0.45-1.52-0.88-3.01-1.31l-5.06-1.47c-2.6-0.72-4.63-1.8-6.08-3.23
		c-1.45-1.43-2.18-3.54-2.18-6.34c0-2.79,1.13-5.09,3.39-6.88c2.26-1.79,5.49-2.69,9.7-2.69c4.2,0,7.75,0.62,10.66,1.86
		c0.04,0.43,0.06,0.85,0.06,1.28c0,2.22-0.47,4.27-1.41,6.14h-5.25c-0.56-0.98-0.92-2-1.09-3.07
		C43.53,58.63,42.33,58.48,41.14,58.48z"/>
	<path class="st1" d="M72.02,85.75c-5.06,0-8.8-1.34-11.23-4.03c-2.43-2.69-3.65-6.75-3.65-12.19c0-5.44,1.35-9.6,4.06-12.48
		c2.71-2.88,6.6-4.32,11.68-4.32c5.08,0,8.84,1.28,11.3,3.84c2.45,2.56,3.68,6.56,3.68,12c0,5.44-1.38,9.66-4.13,12.67
		S77.07,85.75,72.02,85.75z M66.35,68.98c0,6.83,2.05,10.24,6.14,10.24c2.09,0,3.64-0.78,4.64-2.34c1-1.56,1.5-4.11,1.5-7.65
		c0-6.66-2.09-9.98-6.27-9.98c-2.05,0-3.56,0.74-4.54,2.21C66.84,62.93,66.35,65.44,66.35,68.98z"/>
	<path class="st1" d="M106.16,59.25c-3.93,0-5.89,3.37-5.89,10.11c0,3.41,0.54,5.79,1.63,7.14c1.09,1.34,2.66,2.02,4.7,2.02
		c3.24,0,6.1-0.3,8.58-0.9l1.92,4.93c-1.37,0.9-3.2,1.65-5.5,2.27s-4.54,0.93-6.72,0.93c-9.22,0-13.82-5.33-13.82-16
		c0-6.23,1.6-10.71,4.8-13.44c2.86-2.39,6.34-3.58,10.43-3.58s7.51,0.77,10.24,2.3c0.04,0.43,0.06,0.83,0.06,1.22
		c0,2.43-0.56,4.74-1.66,6.91h-5.63c-0.6-1.07-0.96-2.35-1.09-3.84C107.7,59.27,107.01,59.25,106.16,59.25z"/>
	<path class="st1" d="M120.69,53.24c2.39-0.55,4.61-0.83,6.66-0.83c2.05,0,3.78,0.06,5.18,0.19v25.54c1.66,0.64,2.84,1.37,3.52,2.18
		l-0.64,4.93h-14.72l-0.64-4.93c0.6-0.81,1.77-1.54,3.52-2.18V60.34c-1.49-0.51-2.67-1.24-3.52-2.18L120.69,53.24z M127.95,48.82
		c-3.56,0-5.34-1.61-5.34-4.83c0-3.22,1.78-4.83,5.34-4.83c3.56,0,5.34,1.61,5.34,4.83C133.3,47.21,131.52,48.82,127.95,48.82z"/>
	<path class="st1" d="M139.89,57.97c0-0.64,0.02-1.32,0.06-2.05c3.97-2.13,8.23-3.2,12.8-3.2c4.56,0,7.84,0.86,9.82,2.59
		c1.98,1.73,2.98,4.6,2.98,8.61v13.63c1.49,0.3,2.67,0.66,3.52,1.09v5.57c-2.18,1.02-5.29,1.54-9.34,1.54
		c-0.43-1.11-0.79-2.45-1.09-4.03c-1.83,2.69-5.16,4.03-9.98,4.03c-2.86,0-5.3-0.83-7.33-2.5c-2.03-1.66-3.04-3.92-3.04-6.78
		s0.95-5.11,2.85-6.75c1.9-1.64,4.73-2.46,8.48-2.46h6.98v-3.07c0-3.33-1.77-4.99-5.31-4.99c-1.32,0-2.41,0.13-3.26,0.38
		c-0.09,1.79-0.34,3.18-0.77,4.16h-6.27C140.25,62.24,139.89,60.32,139.89,57.97z M151.41,79.22c2.18,0,3.9-0.64,5.18-1.92v-5.25
		h-4.48c-3.07,0-4.61,1.17-4.61,3.52c0,1.07,0.33,1.94,0.99,2.62C149.16,78.88,150.13,79.22,151.41,79.22z"/>
	<path class="st1" d="M171.25,39.8c2.39-0.55,4.61-0.83,6.66-0.83c2.05,0,3.78,0.06,5.18,0.19v38.98c1.66,0.64,2.84,1.37,3.52,2.18
		l-0.64,4.93h-14.72l-0.64-4.93c0.6-0.81,1.77-1.54,3.52-2.18V46.9c-1.49-0.51-2.67-1.24-3.52-2.18L171.25,39.8z"/>
	<path class="st1" d="M204.27,53.24c2.35-0.51,4.46-0.77,6.34-0.77c1.88,0,3.43,0.04,4.67,0.13v3.2c1.02-0.85,2.3-1.58,3.84-2.18
		c1.54-0.6,2.92-0.9,4.16-0.9c4.86,0,8.11,1.22,9.73,3.65c1.07-1.02,2.47-1.89,4.22-2.59c1.75-0.7,3.37-1.06,4.86-1.06
		c4.69,0,7.85,1.06,9.47,3.17C253.19,58,254,61.96,254,67.76v10.37c1.66,0.64,2.84,1.37,3.52,2.18l-0.64,4.93h-14.72l-0.64-4.93
		c0.6-0.81,1.77-1.54,3.52-2.18V65.46c0-2.35-0.32-3.9-0.96-4.67c-0.64-0.77-1.91-1.15-3.81-1.15c-1.9,0-3.7,0.7-5.41,2.11
		c0.21,1.45,0.32,3.46,0.32,6.02v10.37c1.66,0.64,2.84,1.37,3.52,2.18l-0.64,4.93h-14.72l-0.64-4.93c0.6-0.81,1.77-1.54,3.52-2.18
		V65.46c0-2.35-0.32-3.9-0.96-4.67c-0.64-0.77-1.9-1.15-3.78-1.15c-1.88,0-3.67,0.68-5.38,2.05v16.45c1.66,0.64,2.84,1.37,3.52,2.18
		l-0.64,4.93h-14.72l-0.64-4.93c0.6-0.81,1.77-1.54,3.52-2.18V60.34c-1.49-0.51-2.67-1.24-3.52-2.18L204.27,53.24z"/>
	<path class="st1" d="M275.05,85.75c-5.12,0-8.97-1.36-11.55-4.1c-2.58-2.73-3.87-6.7-3.87-11.9c0-3.16,0.45-5.88,1.34-8.16
		c0.9-2.28,2.11-4.04,3.65-5.28c2.99-2.39,6.46-3.58,10.43-3.58c3.97,0,7.01,1.01,9.12,3.04c2.11,2.03,3.17,5.66,3.17,10.91
		c0,3.07-1.51,4.61-4.54,4.61h-13.89c0.17,2.69,0.86,4.59,2.08,5.7s3.15,1.66,5.79,1.66c1.45,0,2.84-0.17,4.16-0.51
		c1.32-0.34,2.28-0.68,2.88-1.02l0.9-0.51l1.92,5.12c-0.26,0.3-0.63,0.67-1.12,1.12c-0.49,0.45-1.73,1.05-3.71,1.79
		C279.82,85.37,277.57,85.75,275.05,85.75z M279.09,65.59c0.08-0.6,0.13-1.32,0.13-2.18c0-0.85-0.34-1.76-1.02-2.72
		c-0.68-0.96-1.87-1.44-3.55-1.44s-2.98,0.51-3.87,1.54c-0.9,1.02-1.49,2.75-1.79,5.18L279.09,65.59z"/>
	<path class="st1" d="M307.25,39.8c2.43-0.55,4.76-0.83,6.98-0.83s4.12,0.06,5.7,0.19v38.4c1.28,0.21,2.45,0.58,3.52,1.09v5.06
		c-2.56,1.37-5.8,2.05-9.73,2.05c-0.43-0.21-0.84-0.6-1.25-1.15c-0.41-0.55-0.63-1.09-0.67-1.6c-0.94,0.77-2.16,1.42-3.65,1.95
		c-1.49,0.53-2.97,0.8-4.42,0.8c-4.61,0-7.95-1.25-10.02-3.74c-2.07-2.5-3.1-6.58-3.1-12.26c0-6.44,1.58-10.96,4.74-13.57
		c2.77-2.3,6.19-3.46,10.24-3.46c1.79,0,3.58,0.21,5.38,0.64v-6.34c-1.96-0.55-3.41-1.32-4.35-2.3L307.25,39.8z M305.07,79.22
		c2.43,0,4.39-0.73,5.89-2.18V59.89c-1.75-0.43-3.61-0.64-5.57-0.64c-1.96,0-3.38,0.86-4.26,2.59c-0.88,1.73-1.31,4.31-1.31,7.74
		c0,3.44,0.43,5.9,1.28,7.39C301.95,78.47,303.28,79.22,305.07,79.22z"/>
	<path class="st1" d="M326.89,53.24c2.39-0.55,4.61-0.83,6.66-0.83s3.78,0.06,5.18,0.19v25.54c1.66,0.64,2.84,1.37,3.52,2.18
		l-0.64,4.93h-14.72l-0.64-4.93c0.6-0.81,1.77-1.54,3.52-2.18V60.34c-1.49-0.51-2.67-1.24-3.52-2.18L326.89,53.24z M334.16,48.82
		c-3.56,0-5.34-1.61-5.34-4.83c0-3.22,1.78-4.83,5.34-4.83s5.34,1.61,5.34,4.83C339.5,47.21,337.72,48.82,334.16,48.82z"/>
	<path class="st1" d="M346.09,57.97c0-0.64,0.02-1.32,0.06-2.05c3.97-2.13,8.23-3.2,12.8-3.2s7.84,0.86,9.82,2.59
		c1.98,1.73,2.98,4.6,2.98,8.61v13.63c1.49,0.3,2.67,0.66,3.52,1.09v5.57c-2.18,1.02-5.29,1.54-9.34,1.54
		c-0.43-1.11-0.79-2.45-1.09-4.03c-1.83,2.69-5.16,4.03-9.98,4.03c-2.86,0-5.3-0.83-7.33-2.5c-2.03-1.66-3.04-3.92-3.04-6.78
		s0.95-5.11,2.85-6.75s4.73-2.46,8.48-2.46h6.98v-3.07c0-3.33-1.77-4.99-5.31-4.99c-1.32,0-2.41,0.13-3.26,0.38
		c-0.09,1.79-0.34,3.18-0.77,4.16h-6.27C346.45,62.24,346.09,60.32,346.09,57.97z M357.61,79.22c2.18,0,3.9-0.64,5.18-1.92v-5.25
		h-4.48c-3.07,0-4.61,1.17-4.61,3.52c0,1.07,0.33,1.94,0.99,2.62C355.36,78.88,356.33,79.22,357.61,79.22z"/>
	<path class="st1" d="M384.08,66.29c-3.39,0-5.09-1.59-5.09-4.77c0-3.18,1.7-4.77,5.09-4.77c3.39,0,5.09,1.59,5.09,4.77
		C389.16,64.7,387.47,66.29,384.08,66.29z M384.08,80.75c-3.39,0-5.09-1.59-5.09-4.77c0-3.18,1.7-4.77,5.09-4.77
		c3.39,0,5.09,1.59,5.09,4.77C389.16,79.17,387.47,80.75,384.08,80.75z"/>
</g>
</svg>
